<mxfile host="app.diagrams.net" modified="2023-09-21T01:22:35.764Z" agent="Mozilla/5.0 (Windows NT 10.0; Win64; x64) AppleWebKit/537.36 (KHTML, like Gecko) Chrome/117.0.0.0 Safari/537.36" version="21.8.0" etag="Gcl11o7x8Awo0wz-EjPC" type="github">
  <diagram name="Page-1" id="hljh4sCIEratN5euc8I0">
    <mxGraphModel>
      <root>
        <mxCell id="0" />
        <mxCell id="1" parent="0" />
      </root>
    </mxGraphModel>
  </diagram>
</mxfile>
